<?xml version="1.0" encoding="UTF-8" standalone="no"?>
<!-- Created with Inkscape (http://www.inkscape.org/) -->

<svg
   width="512"
   height="512"
   viewBox="0 0 512 512"
   version="1.1"
   id="svg1"
   inkscape:version="1.4.2 (1:1.4.2+202505120737+ebf0e940d0)"
   sodipodi:docname="drawing.svg"
   xmlns:inkscape="http://www.inkscape.org/namespaces/inkscape"
   xmlns:sodipodi="http://sodipodi.sourceforge.net/DTD/sodipodi-0.dtd"
   xmlns="http://www.w3.org/2000/svg"
   xmlns:svg="http://www.w3.org/2000/svg">
  <sodipodi:namedview
     id="namedview1"
     pagecolor="#ffffff"
     bordercolor="#000000"
     borderopacity="0.25"
     inkscape:showpageshadow="2"
     inkscape:pageopacity="0.0"
     inkscape:pagecheckerboard="0"
     inkscape:deskcolor="#d1d1d1"
     inkscape:document-units="px"
     inkscape:zoom="0.41308594"
     inkscape:cx="487.79196"
     inkscape:cy="210.60993"
     inkscape:window-width="1920"
     inkscape:window-height="1048"
     inkscape:window-x="0"
     inkscape:window-y="0"
     inkscape:window-maximized="1"
     inkscape:current-layer="layer1" />
  <defs
     id="defs1" />
  <g
     inkscape:label="Layer 1"
     inkscape:groupmode="layer"
     id="layer1">
    <path
       d="M 256,26.623047 A 233.22823,229.37675 0 0 0 22.771484,256 233.22823,229.37675 0 0 0 256,485.37695 a 233.22823,229.37675 0 0 0 52.08594,-5.79297 136.08546,122.81927 0 0 1 -3.39063,-27.25 136.08546,122.81927 0 0 1 136.08399,-122.81836 136.08546,122.81927 0 0 1 34.70507,4.06055 A 233.22823,229.37675 0 0 0 489.22852,256 233.22823,229.37675 0 0 0 256,26.623047 Z M 180.57812,132.94336 c 12.49304,0 24.25746,1.14516 35.29297,3.43555 11.24374,2.29039 21.65443,5.51729 31.23243,9.68164 l -10.61719,24.36132 c -7.91226,-3.53969 -16.8669,-6.55803 -26.86133,-9.05664 -9.78621,-2.4986 -19.98834,-3.74804 -30.60742,-3.74804 -26.65182,0 -47.4732,8.01609 -62.46485,24.04883 -14.78343,16.03273 -22.175777,37.99926 -22.175777,65.90039 0,17.69847 2.811726,33.41976 8.433597,47.16211 5.83008,13.53412 14.88705,24.15142 27.17187,31.85546 12.28482,7.49583 28.42129,11.24414 48.41016,11.24414 9.78621,0 18.11515,-0.51946 24.98633,-1.56054 6.87117,-1.04109 13.11836,-2.29053 18.74023,-3.74805 v -66.21289 h -49.03516 v -24.98633 h 77.14454 v 109.31446 c -12.07661,3.95612 -24.25815,6.87018 -36.54297,8.74414 -12.28483,1.87395 -26.23527,2.81054 -41.85157,2.81054 -23.11212,0 -42.57978,-4.58062 -58.40429,-13.74218 C 97.605171,339.07749 85.527912,325.85702 77.199219,308.7832 69.078743,291.50117 65.017578,271.09496 65.017578,247.56641 c 0,-23.32034 4.582578,-43.51798 13.744141,-60.5918 9.161562,-17.07382 22.277741,-30.29428 39.351561,-39.66406 17.28204,-9.578 38.10342,-14.36719 62.46484,-14.36719 z"
       style="fill:#0d6efd;stroke-width:0.941371"
       id="path3" />
    <path
       d="m 351.10937,173.23242 v 64.65235 h -62.15234 v 22.17382 h 62.15234 v 64.33985 H 373.5957 V 260.05859 H 435.75 v -22.17382 h -62.1543 v -64.65235 z"
       style="font-size:312.326px;-inkscape-font-specification:sans-serif;fill:#a8cbfe;stroke-width:1.6267"
       id="path6" />
    <path
       d="m 351.10937,173.23242 h 22.48633 v 64.65235 H 435.75 v 22.17382 h -62.1543 v 64.33985 h -22.48633 v -64.33985 h -62.15234 v -22.17382 h 62.15234 z"
       style="font-size:312.326px;-inkscape-font-specification:sans-serif;fill:#a8cbfe;stroke-width:1.6267"
       id="path5" />
    <path
       d="m 180.57812,132.94336 c -24.36142,0 -45.1828,4.78919 -62.46484,14.36719 -17.07382,9.36978 -30.189999,22.59024 -39.351561,39.66406 -9.161563,17.07382 -13.744141,37.27146 -13.744141,60.5918 0,23.52855 4.061165,43.93476 12.181641,61.21679 8.328693,17.07382 20.405952,30.29429 36.230471,39.66407 15.82451,9.16156 35.29217,13.74218 58.40429,13.74218 15.6163,0 29.56674,-0.93659 41.85157,-2.81054 12.28482,-1.87396 24.46636,-4.78802 36.54297,-8.74414 V 241.32031 h -77.14454 v 24.98633 h 49.03516 v 66.21289 c -5.62187,1.45752 -11.86906,2.70696 -18.74023,3.74805 -6.87118,1.04108 -15.20012,1.56054 -24.98633,1.56054 -19.98887,0 -36.12534,-3.74831 -48.41016,-11.24414 -12.28482,-7.70404 -21.34179,-18.32134 -27.17187,-31.85546 -5.621871,-13.74235 -8.433597,-29.46364 -8.433597,-47.16211 0,-27.90113 7.392347,-49.86766 22.175777,-65.90039 14.99165,-16.03274 35.81303,-24.04883 62.46485,-24.04883 10.61908,0 20.82121,1.24944 30.60742,3.74804 9.99443,2.49861 18.94907,5.51695 26.86133,9.05664 l 10.61719,-24.36132 c -9.578,-4.16435 -19.98869,-7.39125 -31.23243,-9.68164 -11.03551,-2.29039 -22.79993,-3.43555 -35.29297,-3.43555 z"
       style="font-size:312.326px;-inkscape-font-specification:sans-serif;fill:#a8cbfe;stroke-width:1.6267"
       id="path4" />
  </g>
</svg>
